<?xml version="1.0" encoding="utf-8"?>
<svg version="1.0" width="1155.000000pt" height="1280.000000pt" viewBox="0 0 1155.000000 1280.000000" preserveAspectRatio="xMidYMid meet" xmlns="http://www.w3.org/2000/svg">
  <g transform="translate(0.000000,1280.000000) scale(0.100000,-0.100000)" fill="#000000" stroke="none">
    <path d="M5395 12788 c-32 -12 -5124 -2893 -5140 -2909 -6 -6 -4 -14 5 -23 8 -7 780 -377 1715 -821 935 -445 2229 -1060 2875 -1367 923 -440 1186 -561 1225 -565 43 -5 60 -1 113 26 50 25 4815 3030 5004 3155 59 39 71 55 59 74 -6 10 -408 182 -2396 1027 -159 68 -954 405 -1765 750 -811 345 -1501 636 -1533 646 -65 21 -117 23 -162 7z m98 -573 c388 -51 657 -235 657 -449 0 -197 -232 -382 -571 -455 -504 -108 -1044 30 -1187 304 -36 68 -37 169 -4 237 63 127 218 238 430 307 201 65 448 86 675 56z m1899 -804 c298 -52 507 -173 579 -337 17 -38 21 -61 17 -120 -9 -136 -101 -245 -284 -337 -101 -51 -199 -83 -326 -109 -161 -33 -464 -32 -616 0 -348 75 -554 239 -554 438 0 223 301 423 717 477 98 13 360 6 467 -12z m1835 -812 c225 -27 448 -121 551 -233 57 -62 73 -90 88 -153 53 -230 -199 -446 -617 -528 -117 -23 -363 -31 -485 -15 -232 29 -438 109 -554 216 -86 80 -112 129 -118 219 -4 63 -1 80 23 134 89 197 429 354 810 374 71 4 206 -2 302 -14z m-6505 -28 c367 -63 600 -235 600 -441 0 -222 -279 -416 -684 -476 -138 -20 -432 -14 -543 11 -285 64 -475 183 -540 339 -24 56 -19 152 10 213 79 170 329 307 651 357 137 21 370 20 506 -3z m1781 -856 c396 -52 660 -232 661 -451 0 -337 -649 -576 -1239 -458 -101 21 -199 55 -296 105 -299 155 -334 420 -80 608 222 165 601 242 954 196z m1822 -845 c427 -38 726 -225 728 -453 2 -212 -240 -393 -625 -468 -134 -27 -413 -32 -538 -10 -306 53 -513 167 -591 326 -28 57 -31 72 -27 132 5 90 36 149 118 227 189 178 573 279 935 246z" style="fill: rgb(255, 255, 255);"/>
    <path d="M11430 9941 c-192 -121 -4517 -2855 -4760 -3007 -151 -96 -296 -193 -322 -217 l-48 -43 0 -74 c0 -41 11 -829 25 -1750 14 -921 34 -2307 45 -3080 26 -1869 23 -1760 55 -1760 14 0 4991 3310 5058 3363 21 18 45 43 52 57 10 20 11 659 6 3290 -5 2891 -8 3265 -21 3267 -8 1 -49 -19 -90 -46z m-343 -1192 c156 -75 231 -245 220 -499 -22 -492 -399 -1014 -792 -1097 -90 -19 -162 -10 -242 28 -98 47 -170 150 -204 289 -18 75 -15 276 5 369 99 449 414 841 750 932 96 26 180 19 263 -22z m-1482 -3021 c97 -50 174 -158 206 -288 8 -33 13 -105 13 -180 -1 -140 -28 -273 -83 -413 -120 -303 -336 -558 -564 -666 -105 -50 -171 -65 -261 -59 -169 12 -290 132 -333 331 -22 103 -13 291 20 418 105 403 397 765 700 865 100 33 228 30 302 -8z m-1688 -3113 c112 -33 199 -123 243 -248 31 -88 39 -300 16 -418 -87 -440 -408 -849 -740 -944 -87 -25 -214 -17 -281 17 -86 44 -145 119 -187 237 -29 81 -36 286 -14 403 34 178 126 395 234 548 60 86 202 231 278 286 157 113 324 157 451 119z" style="fill: rgb(255, 255, 255);"/>
    <path d="M0 9478 c0 -13 18 -576 40 -1253 79 -2418 100 -3083 129 -4005 40 -1259 37 -1198 70 -1230 29 -29 5689 -2990 5715 -2990 9 0 19 6 22 14 6 15 -81 6139 -92 6475 l-6 194 -32 33 c-24 26 -374 196 -1611 785 -869 413 -2170 1032 -2892 1375 -721 343 -1319 624 -1327 624 -10 0 -16 -9 -16 -22z m815 -1023 c342 -81 679 -480 775 -920 27 -125 30 -298 6 -399 -33 -138 -116 -250 -224 -303 -72 -35 -196 -43 -291 -18 -341 89 -670 488 -767 932 -23 106 -24 306 -1 392 40 150 143 273 260 310 74 24 160 26 242 6z m3621 -1776 c154 -27 300 -112 444 -258 194 -195 330 -453 381 -722 18 -95 15 -272 -5 -349 -65 -250 -251 -375 -485 -326 -304 64 -623 397 -754 788 -62 184 -80 402 -44 537 46 172 148 288 287 325 67 18 99 19 176 5z m-1709 -1198 c123 -43 223 -109 344 -230 342 -340 492 -864 341 -1185 -180 -380 -703 -259 -1035 240 -288 433 -304 959 -34 1142 71 49 115 61 212 61 74 1 105 -4 172 -28z m-1754 -1137 c29 -9 85 -33 125 -55 288 -154 536 -503 618 -871 23 -103 23 -312 0 -398 -91 -333 -404 -423 -730 -210 -171 112 -326 293 -431 505 -98 198 -135 344 -135 539 0 179 43 307 137 403 103 105 249 135 416 87z m3649 -1866 c332 -123 634 -517 713 -929 19 -103 19 -285 0 -367 -34 -145 -111 -249 -223 -304 -62 -31 -74 -33 -167 -33 -119 1 -191 22 -305 89 -282 166 -509 499 -586 856 -24 113 -25 301 -1 389 44 164 129 266 260 313 74 26 217 20 309 -14z" style="fill: rgb(255, 255, 255);"/>
  </g>
</svg>